# xmcd
#
# Track frame offsets:
#	150
#	33130
#	60848
#	104047
#	139574
#	160586
#	186090
#	214826
#	251342
#	281726
#
# Disc length: 4107 seconds
#
# Revision: 1
# Processed by: cddbd v1.5.2PL0 Copyright (c) Steve Scherf et al.
# Submitted via: audiograbber 1.83.01
#
DISCID=8310090a
DTITLE=Jim Kahr - Back in Mannheim
DYEAR=2005
DGENRE=Blues
TTITLE0=As the years go passing by
TTITLE1=Landin on you
TTITLE2=Rainy night in Georgia
TTITLE3=Inner city blues
TTITLE4=Big city struggle
TTITLE5=Hurtin in the morning
TTITLE6=I ll be around
TTITLE7=Got to be a way
TTITLE8=Slidin
TTITLE9=Driftin Mandolin
EXTD=
EXTT0=
EXTT1=
EXTT2=
EXTT3=
EXTT4=
EXTT5=
EXTT6=
EXTT7=
EXTT8=
EXTT9=
PLAYORDER=
